<svg width="20" height="20" viewBox="0 0 20 20" fill="none" xmlns="http://www.w3.org/2000/svg">
<g clip-path="url(#clip0_131_1446)">
<path d="M7.44656 6.12028C7.08038 5.75409 6.48668 5.75409 6.12051 6.12028C5.75433 6.48646 5.75433 7.08015 6.12051 7.44633L8.67407 9.9999L6.12051 12.5535C5.75433 12.9197 5.75433 13.5134 6.12051 13.8796C6.48668 14.2458 7.08038 14.2458 7.44656 13.8796L10.0002 11.326L12.5537 13.8796C12.9199 14.2458 13.5136 14.2458 13.8797 13.8796C14.2459 13.5134 14.2459 12.9197 13.8797 12.5535L11.3261 9.9999L13.8797 7.44633C14.2459 7.08015 14.2459 6.48646 13.8797 6.12028C13.5136 5.75409 12.9199 5.75409 12.5537 6.12028L10.0002 8.67385L7.44656 6.12028Z" fill="#FF5A49"/>
<path fill-rule="evenodd" clip-rule="evenodd" d="M10 0C4.47716 0 0 4.47716 0 10C0 15.5229 4.47716 20 10 20C15.5229 20 20 15.5229 20 10C20 4.47716 15.5229 0 10 0ZM1.87532 10C1.87532 5.51288 5.51288 1.87532 10 1.87532C14.4872 1.87532 18.1247 5.51288 18.1247 10C18.1247 14.4872 14.4872 18.1247 10 18.1247C5.51288 18.1247 1.87532 14.4872 1.87532 10Z" fill="#FF5A49"/>
</g>
<defs>
<clipPath id="clip0_131_1446">
<rect width="20" height="20" fill="white"/>
</clipPath>
</defs>
</svg>
