<svg width="20" height="20" viewBox="0 0 20 20" fill="none" xmlns="http://www.w3.org/2000/svg">
<path d="M6.93054 5.98725C6.67019 5.72691 6.24809 5.72691 5.98774 5.98725C5.72739 6.24761 5.72739 6.66972 5.98774 6.93007L9.05765 9.99997L5.98774 13.0698C5.72739 13.3302 5.72739 13.7524 5.98774 14.0126C6.24809 14.273 6.67019 14.273 6.93054 14.0126L10.0004 10.9428L13.0703 14.0126C13.3307 14.273 13.7528 14.273 14.0131 14.0126C14.2735 13.7524 14.2735 13.3302 14.0131 13.0698L10.9432 9.99997L14.0131 6.93007C14.2735 6.66972 14.2735 6.24761 14.0131 5.98725C13.7528 5.72691 13.3307 5.72691 13.0703 5.98725L10.0004 9.05716L6.93054 5.98725Z" fill="#222222"/>
<path fill-rule="evenodd" clip-rule="evenodd" d="M10 0C4.47715 0 0 4.47715 0 10C0 15.5228 4.47715 20 10 20C15.5228 20 20 15.5228 20 10C20 4.47715 15.5228 0 10 0ZM1.33333 10C1.33333 5.21353 5.21353 1.33333 10 1.33333C14.7865 1.33333 18.6667 5.21353 18.6667 10C18.6667 14.7865 14.7865 18.6667 10 18.6667C5.21353 18.6667 1.33333 14.7865 1.33333 10Z" fill="#222222"/>
</svg>
