<svg width="20" height="20" viewBox="0 0 20 20" fill="none" xmlns="http://www.w3.org/2000/svg">
<path d="M15.6587 7.1111C15.9191 6.85075 15.9191 6.42863 15.6587 6.16828C15.3984 5.90794 14.9763 5.90794 14.7159 6.16828L9.09473 11.7895C8.7042 12.1801 8.07104 12.1801 7.68051 11.7895L5.39443 9.50335C5.13407 9.24299 4.71196 9.24299 4.45161 9.50333C4.19127 9.76368 4.19125 10.1858 4.4516 10.4461L6.73769 12.7323C7.64892 13.6435 9.12631 13.6435 10.0375 12.7323L15.6587 7.1111Z" fill="#222222"/>
<path fill-rule="evenodd" clip-rule="evenodd" d="M10 0C4.47715 0 0 4.47715 0 10C0 15.5228 4.47715 20 10 20C15.5228 20 20 15.5228 20 10C20 4.47715 15.5228 0 10 0ZM1.33333 10C1.33333 5.21353 5.21353 1.33333 10 1.33333C14.7865 1.33333 18.6667 5.21353 18.6667 10C18.6667 14.7865 14.7865 18.6667 10 18.6667C5.21353 18.6667 1.33333 14.7865 1.33333 10Z" fill="#222222"/>
</svg>
