<svg width="20" height="20" viewBox="0 0 20 20" fill="none" xmlns="http://www.w3.org/2000/svg">
<g clip-path="url(#clip0_131_1423)">
<path d="M15.4122 7.48917C15.7784 7.12298 15.7784 6.52929 15.4122 6.16311C15.046 5.79693 14.4523 5.79693 14.0861 6.16311L8.86727 11.382C8.62315 11.6261 8.22734 11.6261 7.98323 11.382L5.91391 9.31266C5.54773 8.94648 4.95403 8.94648 4.58785 9.31266C4.22168 9.67885 4.22168 10.2726 4.58785 10.6388L6.65719 12.708C7.63366 13.6845 9.21684 13.6845 10.1933 12.708L15.4122 7.48917Z" fill="#26AD50"/>
<path fill-rule="evenodd" clip-rule="evenodd" d="M10 0C4.47716 0 0 4.47716 0 10C0 15.5229 4.47716 20 10 20C15.5229 20 20 15.5229 20 10C20 4.47716 15.5229 0 10 0ZM1.87532 10C1.87532 5.51288 5.51288 1.87532 10 1.87532C14.4872 1.87532 18.1247 5.51288 18.1247 10C18.1247 14.4872 14.4872 18.1247 10 18.1247C5.51288 18.1247 1.87532 14.4872 1.87532 10Z" fill="#26AD50"/>
</g>
<defs>
<clipPath id="clip0_131_1423">
<rect width="20" height="20" fill="white"/>
</clipPath>
</defs>
</svg>
