<svg width="32" height="32" viewBox="0 0 32 32" fill="none" xmlns="http://www.w3.org/2000/svg">
<path fill-rule="evenodd" clip-rule="evenodd" d="M10.75 12C10.75 6.89137 14.8914 2.75 20 2.75C21.0324 2.75 22.0272 2.91951 22.957 3.233C24.063 3.60593 24.2293 4.94847 23.509 5.66872L19.1087 10.069C18.8158 10.3619 18.8158 10.8368 19.1087 11.1297L20.8752 12.8962C21.1681 13.1891 21.643 13.1891 21.9359 12.8962L26.3338 8.49834C27.0544 7.77775 28.3979 7.94464 28.7699 9.05177C29.0815 9.97903 29.25 10.9709 29.25 12C29.25 17.1086 25.1086 21.25 20 21.25C18.926 21.25 17.8931 21.0666 16.9321 20.7288L9.73375 27.9271C8.17189 29.489 5.63962 29.489 4.07776 27.9271C2.51591 26.3653 2.51591 23.833 4.07776 22.2711L11.2737 15.0752C10.9343 14.1121 10.75 13.0767 10.75 12ZM20 4.75C15.9959 4.75 12.75 7.99594 12.75 12C12.75 13.0393 12.968 14.0249 13.3599 14.9159C13.526 15.2934 13.4433 15.734 13.1517 16.0256L5.49198 23.6853C4.71117 24.4662 4.71117 25.7321 5.49198 26.5129C6.27279 27.2937 7.53873 27.2937 8.31953 26.5129L15.9811 18.8513C16.2725 18.5599 16.7127 18.4771 17.0901 18.6427C17.9795 19.0329 18.963 19.25 20 19.25C24.004 19.25 27.25 16.0041 27.25 12C27.25 11.5043 27.2004 11.021 27.1061 10.5545L23.3501 14.3104C22.2762 15.3844 20.535 15.3844 19.461 14.3104L17.6945 12.5439C16.6206 11.47 16.6206 9.72876 17.6945 8.65482L21.4537 4.89559C20.9846 4.80018 20.4986 4.75 20 4.75Z" fill="#222222"/>
</svg>
