<svg width="32" height="32" viewBox="0 0 32 32" fill="none" xmlns="http://www.w3.org/2000/svg">
<path d="M11 3C11 2.44772 11.4477 2 12 2H22.5C25.5376 2 28 4.46243 28 7.5V24.5C28 27.5376 25.5376 30 22.5 30H12C11.4477 30 11 29.5523 11 29C11 28.4477 11.4477 28 12 28H22.5C24.433 28 26 26.433 26 24.5V7.5C26 5.567 24.433 4 22.5 4H12C11.4477 4 11 3.55228 11 3Z" fill="white"/>
<path d="M17.367 17L12.5116 21.8554C12.1211 22.2459 12.1211 22.8791 12.5116 23.2696C12.9022 23.6601 13.5353 23.6601 13.9259 23.2696L19.1625 18.0329C20.2853 16.9102 20.2853 15.0898 19.1625 13.9671L13.9259 8.73039C13.5353 8.33987 12.9022 8.33987 12.5116 8.73039C12.1211 9.12092 12.1211 9.75408 12.5116 10.1446L17.367 15H2C1.44772 15 1 15.4477 1 16C1 16.5523 1.44772 17 2 17H17.367Z" fill="white"/>
</svg>
