<svg width="150" height="38" viewBox="0 0 150 38" fill="none" xmlns="http://www.w3.org/2000/svg">
<path d="M12.4339 28.4319L6.59755 7.95394H6.42188C6.47393 8.4855 6.52598 9.20505 6.57803 10.1126C6.6431 11.0201 6.70166 11.999 6.75371 13.0491C6.80576 14.0993 6.83179 15.1105 6.83179 16.0829V28.4319H0V0H10.2672L16.2206 20.1863H16.3768L22.2131 0H32.4998V28.4319H25.4142V15.9662C25.4142 15.0716 25.4273 14.1122 25.4533 13.088C25.4923 12.0508 25.5314 11.0785 25.5704 10.1709C25.6225 9.25043 25.668 8.52439 25.707 7.99284H25.5314L19.7731 28.4319H12.4339Z" fill="#366AF3"/>
<path d="M46.1568 6.00921C48.9546 6.00921 51.1408 6.70283 52.7154 8.09007C54.2899 9.46435 55.0772 11.4285 55.0772 13.9826V28.4319H49.7875L48.3235 25.5148H48.1673C47.5427 26.2927 46.8986 26.928 46.2349 27.4207C45.5843 27.9004 44.836 28.2504 43.9902 28.4708C43.1444 28.7042 42.1098 28.8209 40.8866 28.8209C39.6113 28.8209 38.4662 28.5616 37.4512 28.043C36.4362 27.5244 35.6359 26.74 35.0503 25.6899C34.4647 24.6397 34.1719 23.3108 34.1719 21.7032C34.1719 19.3436 34.9918 17.5933 36.6314 16.4524C38.271 15.3115 40.6459 14.6697 43.756 14.5271L47.4451 14.4104V14.0993C47.4451 13.114 47.1979 12.4139 46.7034 11.999C46.2219 11.5841 45.5713 11.3767 44.7515 11.3767C43.8796 11.3767 42.9036 11.5322 41.8235 11.8434C40.7565 12.1416 39.6829 12.5305 38.6028 13.0102L36.3972 7.99284C37.6724 7.34459 39.1169 6.85193 40.7305 6.51484C42.3441 6.17776 44.1529 6.00921 46.1568 6.00921ZM47.4842 18.5916L45.7274 18.6694C44.322 18.7213 43.333 18.9676 42.7605 19.4084C42.2009 19.8362 41.9211 20.4521 41.9211 21.2559C41.9211 22.0078 42.1228 22.5653 42.5262 22.9284C42.9296 23.2784 43.4632 23.4534 44.1268 23.4534C45.0508 23.4534 45.838 23.1617 46.4887 22.5783C47.1523 21.9949 47.4842 21.2364 47.4842 20.303V18.5916Z" fill="#366AF3"/>
<path d="M64.6482 6.39816V14.3327H70.6992V6.39816H78.3313V28.4319H70.6992V19.9918H64.6482V28.4319H57.0161V6.39816H64.6482Z" fill="#366AF3"/>
<path d="M80.1596 6.39816H88.2016L91.9493 19.0389C92.0014 19.2204 92.0534 19.4473 92.1055 19.7196C92.1575 19.9788 92.2031 20.2576 92.2421 20.5558C92.2812 20.854 92.3072 21.1457 92.3202 21.4309H92.4764C92.5414 20.8994 92.613 20.4391 92.6911 20.0502C92.7822 19.6482 92.8667 19.3241 92.9448 19.0778L96.7901 6.39816H104.578L95.8337 29.8321C95.157 31.6213 94.3697 33.1187 93.4718 34.3245C92.587 35.5432 91.4874 36.4572 90.1731 37.0665C88.8718 37.6888 87.2517 38 85.3127 38C84.61 38 84.0049 37.9611 83.4974 37.8833C83.0029 37.8185 82.567 37.7472 82.1896 37.6694V31.6991C82.4759 31.7509 82.8273 31.8028 83.2437 31.8547C83.6601 31.9065 84.096 31.9324 84.5515 31.9324C85.3973 31.9324 86.0805 31.7639 86.601 31.4268C87.1346 31.0897 87.5705 30.6424 87.9088 30.085C88.2472 29.5404 88.5399 28.9505 88.7872 28.3153L88.8653 28.1208L80.1596 6.39816Z" fill="#366AF3"/>
<path d="M115.282 6.00921C118.079 6.00921 120.265 6.70283 121.84 8.09007C123.415 9.46435 124.202 11.4285 124.202 13.9826V28.4319H118.912L117.448 25.5148H117.292C116.667 26.2927 116.023 26.928 115.36 27.4207C114.709 27.9004 113.961 28.2504 113.115 28.4708C112.269 28.7042 111.234 28.8209 110.011 28.8209C108.736 28.8209 107.591 28.5616 106.576 28.043C105.561 27.5244 104.761 26.74 104.175 25.6899C103.589 24.6397 103.297 23.3108 103.297 21.7032C103.297 19.3436 104.116 17.5933 105.756 16.4524C107.396 15.3115 109.771 14.6697 112.881 14.5271L116.57 14.4104V14.0993C116.57 13.114 116.323 12.4139 115.828 11.999C115.347 11.5841 114.696 11.3767 113.876 11.3767C113.004 11.3767 112.028 11.5322 110.948 11.8434C109.881 12.1416 108.808 12.5305 107.728 13.0102L105.522 7.99284C106.797 7.34459 108.242 6.85193 109.855 6.51484C111.469 6.17776 113.278 6.00921 115.282 6.00921ZM116.609 18.5916L114.852 18.6694C113.447 18.7213 112.458 18.9676 111.885 19.4084C111.326 19.8362 111.046 20.4521 111.046 21.2559C111.046 22.0078 111.248 22.5653 111.651 22.9284C112.054 23.2784 112.588 23.4534 113.251 23.4534C114.175 23.4534 114.963 23.1617 115.613 22.5783C116.277 21.9949 116.609 21.2364 116.609 20.303V18.5916Z" fill="#366AF3"/>
<path d="M150 28.4319H142.368V12.0573H137.878C137.605 15.117 137.267 17.7165 136.863 19.8557C136.473 21.9819 135.946 23.7062 135.282 25.0287C134.619 26.3511 133.773 27.317 132.745 27.9263C131.73 28.5227 130.461 28.8209 128.939 28.8209C128.34 28.8209 127.722 28.7625 127.084 28.6459C126.46 28.5421 125.926 28.406 125.484 28.2375V22.5783C125.744 22.7079 126.011 22.7987 126.284 22.8506C126.57 22.9024 126.876 22.9284 127.201 22.9284C127.527 22.9284 127.832 22.8246 128.119 22.6172C128.405 22.4098 128.678 21.9949 128.939 21.3726C129.212 20.7503 129.466 19.8362 129.7 18.6305C129.934 17.4118 130.162 15.8106 130.383 13.827C130.604 11.8434 130.812 9.36711 131.008 6.39816H150V28.4319Z" fill="#366AF3"/>
</svg>
