<svg width="18" height="18" viewBox="0 0 18 18" fill="none" xmlns="http://www.w3.org/2000/svg">
<path d="M13.4078 13.4228L17 17M15.5455 8.27273C15.5455 12.2893 12.2893 15.5455 8.27273 15.5455C4.25611 15.5455 1 12.2893 1 8.27273C1 4.25611 4.25611 1 8.27273 1C12.2893 1 15.5455 4.25611 15.5455 8.27273Z" stroke="#222222" stroke-width="2" stroke-linecap="round"/>
<path d="M13.4078 13.4228L17 17M15.5455 8.27273C15.5455 12.2893 12.2893 15.5455 8.27273 15.5455C4.25611 15.5455 1 12.2893 1 8.27273C1 4.25611 4.25611 1 8.27273 1C12.2893 1 15.5455 4.25611 15.5455 8.27273Z" stroke="black" stroke-opacity="0.2" stroke-width="2" stroke-linecap="round"/>
<path d="M13.4078 13.4228L17 17M15.5455 8.27273C15.5455 12.2893 12.2893 15.5455 8.27273 15.5455C4.25611 15.5455 1 12.2893 1 8.27273C1 4.25611 4.25611 1 8.27273 1C12.2893 1 15.5455 4.25611 15.5455 8.27273Z" stroke="black" stroke-opacity="0.2" stroke-width="2" stroke-linecap="round"/>
</svg>
