<svg width="32" height="32" viewBox="0 0 32 32" fill="none" xmlns="http://www.w3.org/2000/svg">
<g clip-path="url(#clip0_3010_43817)">
<path fill-rule="evenodd" clip-rule="evenodd" d="M18.5206 4.3308C16.9372 3.5564 15.0628 3.5564 13.4794 4.3308L1.26591 10.3043C-0.429328 11.1334 -0.419331 13.4889 1.2802 14.3057L6 16.5743V22C6 23.9074 7.38108 25.4252 9.15024 26.4085C10.9536 27.4107 13.3773 28 16 28C18.6228 28 21.0464 27.4107 22.8498 26.4085C24.6189 25.4252 26 23.9074 26 22V16.5743L29 15.1324L29 20.2676C28.4022 20.6134 28 21.2597 28 22C28 23.1046 28.8954 24 30 24C31.1046 24 32 23.1046 32 22C32 21.2597 31.5978 20.6134 31 20.2676L31 14.1477C32.4147 13.2192 32.3304 11.085 30.7341 10.3043L18.5206 4.3308ZM14.3581 6.12743C15.387 5.62419 16.613 5.62419 17.6419 6.12743L29.8554 12.1009C29.9224 12.1337 29.9545 12.1707 29.9715 12.1984C29.9902 12.2291 30.0001 12.2648 30 12.3022C29.9999 12.3396 29.9896 12.3754 29.9706 12.406C29.9533 12.4338 29.9208 12.4707 29.8534 12.5032L17.6195 18.3834C16.6026 18.8722 15.3974 18.8722 14.3805 18.3834L2.14662 12.5032C2.07917 12.4707 2.04666 12.4338 2.02941 12.406C2.01038 12.3754 2.00014 12.3396 2 12.3022C1.99986 12.2648 2.00984 12.2291 2.02854 12.1984C2.04548 12.1707 2.07756 12.1337 2.14461 12.1009L14.3581 6.12743ZM24 17.5356L18.4859 20.186C16.9214 20.938 15.0786 20.938 13.5141 20.186L8 17.5356V22C8 22.8509 8.63364 23.8332 10.1218 24.6603C11.5759 25.4684 13.6522 26 16 26C18.3478 26 20.4241 25.4684 21.8782 24.6603C23.3664 23.8332 24 22.8509 24 22V17.5356Z" fill="#222222"/>
</g>
<defs>
<clipPath id="clip0_3010_43817">
<rect width="32" height="32" fill="white"/>
</clipPath>
</defs>
</svg>
